<svg width="123" height="121" viewBox="0 0 123 121" fill="none"
    xmlns="http://www.w3.org/2000/svg">
    <g clip-path="url(#clip0)">
        <path fill-rule="evenodd" clip-rule="evenodd" d="M95.7 65.5C110.71 65.5 122.88 77.67 122.88 92.68C122.88 107.69 110.71 119.86 95.7 119.86C80.69 119.86 68.52 107.69 68.52 92.68C68.52 77.67 80.69 65.5 95.7 65.5ZM95.96 86.85C99.2 86.85 101.82 89.48 101.82 92.71C101.82 95.94 99.19 98.57 95.96 98.57C92.73 98.57 90.1 95.94 90.1 92.71C90.1 89.48 92.72 86.85 95.96 86.85ZM106.25 79.94L108.57 82.26C109.18 82.87 109.18 83.87 108.57 84.48L106.7 86.35C107.22 87.32 107.61 88.37 107.86 89.44H110.28C111.15 89.44 111.85 90.15 111.85 91.01V94.29C111.85 95.15 111.14 95.86 110.28 95.86H107.64C107.32 96.92 106.86 97.93 106.27 98.86L107.98 100.57C108.59 101.18 108.59 102.18 107.98 102.79L105.66 105.11C105.05 105.72 104.05 105.72 103.44 105.11L101.57 103.24C100.6 103.76 99.55 104.16 98.48 104.4V106.82C98.48 107.68 97.77 108.39 96.91 108.39H93.63C92.77 108.39 92.06 107.68 92.06 106.82V104.18C91 103.86 89.99 103.4 89.06 102.81L87.35 104.52C86.74 105.13 85.74 105.13 85.13 104.52L82.81 102.2C82.2 101.59 82.2 100.59 82.81 99.98L84.68 98.11C84.16 97.14 83.77 96.09 83.52 95.02H81.1C80.24 95.02 79.53 94.31 79.53 93.45V90.17C79.53 89.31 80.24 88.6 81.1 88.6H83.74C84.06 87.54 84.52 86.53 85.11 85.59L83.4 83.88C82.79 83.27 82.79 82.27 83.4 81.66L85.72 79.34C86.33 78.73 87.33 78.73 87.94 79.34L89.81 81.21C90.77 80.69 91.81 80.3 92.9 80.05V77.63C92.9 76.77 93.61 76.06 94.47 76.06H97.75C98.61 76.06 99.32 76.77 99.32 77.63V80.27C100.38 80.59 101.39 81.05 102.33 81.64L104.04 79.93C104.64 79.33 105.64 79.33 106.25 79.94ZM17.69 26.67C25.79 29.38 37.07 31.05 49.6 31.05C62.13 31.05 73.41 29.38 81.51 26.67C88.62 24.3 93.02 21.42 93.02 18.61C93.02 15.8 88.62 12.92 81.51 10.55C73.41 7.85 62.13 6.17 49.6 6.17C37.07 6.17 25.79 7.84 17.69 10.55C2.6 15.59 2.18 21.5 17.69 26.67ZM6.24 47.86C6.8 50.48 11.07 53.12 17.69 55.33C25.79 58.04 37.07 59.71 49.6 59.71C62.13 59.71 73.41 58.04 81.51 55.33C88.62 52.96 93.02 50.08 93.02 47.27H93.05V27.97C90.52 29.7 87.27 31.23 83.46 32.5C74.73 35.41 62.75 37.22 49.6 37.22C36.44 37.22 24.47 35.42 15.74 32.5C11.97 31.24 8.76 29.74 6.25 28.03V47.86H6.24ZM63.3 92.54C58.95 92.98 54.35 93.21 49.6 93.21C36.44 93.21 24.47 91.41 15.74 88.49C11.97 87.23 8.76 85.73 6.25 84.02V102.51C6.81 105.13 11.08 107.77 17.7 109.98C25.8 112.68 37.08 114.36 49.61 114.36C57.13 114.36 64.19 113.76 70.39 112.69C71.95 114.63 73.72 116.39 75.68 117.93C68.15 119.58 59.19 120.53 49.61 120.53C36.45 120.53 24.48 118.73 15.75 115.81C11.15 114.27 0.08 109.23 0.08 103.19C0.08 102.48 0.08 101.89 0.08 101.21C0.06 73.69 0 46.15 0 18.61C0 12.85 6.01 7.96 15.73 4.71C24.46 1.8 36.44 0 49.6 0C62.76 0 74.73 1.8 83.46 4.72C92.31 7.67 98.08 11.99 99.05 17.09C99.17 17.41 99.23 17.76 99.23 18.13V60.5C98.03 60.36 96.81 60.29 95.57 60.29C94.72 60.29 93.89 60.32 93.06 60.39V56.65C90.53 58.38 87.28 59.91 83.47 61.18C74.74 64.09 62.76 65.9 49.61 65.9C36.45 65.9 24.48 64.1 15.75 61.18C11.98 59.92 8.77 58.42 6.26 56.71V75.2C6.82 77.82 11.09 80.46 17.71 82.67C25.81 85.37 37.09 87.05 49.62 87.05C54.63 87.05 59.44 86.78 63.93 86.29C63.51 88.3 63.3 90.4 63.3 92.54Z" fill="#595C5F" fill-opacity="0.3"/>
    </g>
    <defs>
        <clipPath id="clip0">
            <rect width="122.88" height="120.54" fill="white"/>
        </clipPath>
    </defs>
</svg>
