<svg viewBox="0 0 27 41" fill="none" xmlns="http://www.w3.org/2000/svg">
<g filter="url(#filter0_i)">
<path fill-rule="evenodd" clip-rule="evenodd" d="M13.5 0.8125C13.873 0.8125 14.2306 0.960658 14.4944 1.22438C14.7581 1.4881 14.9062 1.84579 14.9062 2.21875V35.3866L23.7544 26.5356C24.0184 26.2716 24.3766 26.1232 24.75 26.1232C25.1234 26.1232 25.4816 26.2716 25.7456 26.5356C26.0097 26.7997 26.158 27.1578 26.158 27.5312C26.158 27.9047 26.0097 28.2628 25.7456 28.5269L14.4956 39.7769C14.365 39.9078 14.2098 40.0117 14.039 40.0826C13.8681 40.1535 13.685 40.19 13.5 40.19C13.315 40.19 13.1319 40.1535 12.961 40.0826C12.7902 40.0117 12.635 39.9078 12.5044 39.7769L1.25437 28.5269C0.990315 28.2628 0.84197 27.9047 0.84197 27.5312C0.84197 27.1578 0.990315 26.7997 1.25437 26.5356C1.51843 26.2716 1.87656 26.1232 2.25 26.1232C2.62343 26.1232 2.98157 26.2716 3.24562 26.5356L12.0937 35.3866V2.21875C12.0937 1.84579 12.2419 1.4881 12.5056 1.22438C12.7693 0.960658 13.127 0.8125 13.5 0.8125Z" fill="#48CAE4"/>
</g>
<defs>
<filter id="filter0_i" x="0.84197" y="0.8125" width="29.316" height="39.3775" filterUnits="userSpaceOnUse" color-interpolation-filters="sRGB">
<feFlood flood-opacity="0" result="BackgroundImageFix"/>
<feBlend mode="normal" in="SourceGraphic" in2="BackgroundImageFix" result="shape"/>
<feColorMatrix in="SourceAlpha" type="matrix" values="0 0 0 0 0 0 0 0 0 0 0 0 0 0 0 0 0 0 127 0" result="hardAlpha"/>
<feOffset dx="4"/>
<feGaussianBlur stdDeviation="2"/>
<feComposite in2="hardAlpha" operator="arithmetic" k2="-1" k3="1"/>
<feColorMatrix type="matrix" values="0 0 0 0 0 0 0 0 0 0 0 0 0 0 0 0 0 0 0.25 0"/>
<feBlend mode="normal" in2="shape" result="effect1_innerShadow"/>
</filter>
</defs>
</svg>
