<svg width="123" height="123" viewBox="0 0 123 123" fill="none"
    xmlns="http://www.w3.org/2000/svg">
    <g opacity="0.3" clip-path="url(#clip0)">
        <path d="M0 117.2L0 89.32C0 87.76 0.64 86.34 1.67 85.31C2.7 84.28 4.12 83.64 5.68 83.64L83.04 83.64L83.04 5.67001C83.04 4.11001 83.68 2.69 84.71 1.66C85.74 0.630005 87.16 -0.00999451 88.72 -0.00999451H117.21C118.77 -0.00999451 120.18 0.630005 121.21 1.66C122.24 2.69 122.88 4.11001 122.88 5.67001V39.94V53.2V66.45V80.1L122.88 93.58V107.01V117.2C122.88 118.76 122.24 120.18 121.21 121.21C120.19 122.24 118.77 122.88 117.2 122.88H75.93H63.31H50.53L38.05 122.88H25.12H12.48H5.68C4.12 122.88 2.7 122.24 1.67 121.21C0.64 120.19 0 118.77 0 117.2ZM94.51 21.32C94.51 17 98.01 13.5 102.33 13.5C106.65 13.5 110.15 17 110.15 21.32C110.15 25.64 106.65 29.14 102.33 29.14C98.01 29.14 94.51 25.64 94.51 21.32ZM118.69 42.03H110.48C109.32 42.03 108.39 41.09 108.39 39.94C108.39 38.79 109.33 37.85 110.48 37.85H118.69V5.68001C118.69 5.27 118.52 4.9 118.25 4.63C117.98 4.36001 117.61 4.2 117.2 4.2H88.71C88.3 4.2 87.93 4.37001 87.66 4.64001C87.39 4.91 87.22 5.28 87.22 5.69L87.22 85.74C87.22 86.9 86.28 87.83 85.13 87.83L5.68 87.83C5.27 87.83 4.9 88 4.63 88.27C4.36 88.54 4.19 88.91 4.19 89.32L4.19 117.2C4.19 117.61 4.36 117.98 4.63 118.25C4.9 118.52 5.27 118.69 5.68 118.69H10.39L10.39 105.39C10.39 104.23 11.33 103.3 12.48 103.3C13.64 103.3 14.57 104.24 14.57 105.39L14.57 118.69H23.03L23.03 111.04C23.03 109.88 23.97 108.95 25.12 108.95C26.28 108.95 27.21 109.89 27.21 111.04L27.21 118.69H35.94V105.39C35.94 104.23 36.88 103.3 38.03 103.3C39.19 103.3 40.12 104.24 40.12 105.39V118.69L48.41 118.69V111.04C48.41 109.88 49.35 108.95 50.5 108.95C51.66 108.95 52.59 109.89 52.59 111.04V118.69H61.19V105.39C61.19 104.23 62.13 103.3 63.28 103.3C64.44 103.3 65.37 104.24 65.37 105.39V118.69H73.79V111.04C73.79 109.88 74.73 108.95 75.88 108.95C77.04 108.95 77.97 109.89 77.97 111.04V118.69H117.15C117.56 118.69 117.93 118.52 118.2 118.25C118.47 117.98 118.64 117.61 118.64 117.2V109.1L104.5 109.1C103.34 109.1 102.41 108.16 102.41 107.01C102.41 105.85 103.35 104.92 104.5 104.92L118.69 104.92V95.68H110.48C109.32 95.68 108.39 94.74 108.39 93.59C108.39 92.43 109.33 91.5 110.48 91.5H118.69L118.69 82.21H104.5C103.34 82.21 102.41 81.27 102.41 80.12C102.41 78.97 103.35 78.03 104.5 78.03H118.69V68.57H110.48C109.32 68.57 108.39 67.63 108.39 66.48C108.39 65.32 109.33 64.39 110.48 64.39H118.69V55.32H104.5C103.34 55.32 102.41 54.38 102.41 53.23C102.41 52.07 103.35 51.14 104.5 51.14H118.69V42.03Z" fill="#595C5F"/>
    </g>
    <defs>
        <clipPath id="clip0">
            <rect width="122.88" height="122.88" fill="white" transform="translate(0 122.88) rotate(-90)"/>
        </clipPath>
    </defs>
</svg>
