<svg width="74" height="74" viewBox="0 0 74 74" fill="none"
    xmlns="http://www.w3.org/2000/svg">
    <g clip-path="url(#clip0)">
        <path d="M37.0031 14.8C27.1364 14.8 20.9698 19.7333 18.5031 29.6C22.2031 24.6667 26.5198 22.8167 31.4531 24.05C34.2682 24.753 36.2785 26.7942 38.5078 29.0573C42.1368 32.7388 46.3333 37 55.5031 37C65.3698 37 71.5364 32.0667 74.0031 22.2C70.3031 27.1333 65.9864 28.9833 61.0531 27.75C58.238 27.047 56.2277 25.0058 53.9984 22.7427C50.3724 19.0612 46.176 14.8 37.0031 14.8ZM18.5031 37C8.63642 37 2.46975 41.9333 0.00308228 51.8C3.70308 46.8667 8.01975 45.0167 12.9531 46.25C15.7682 46.953 17.7785 48.9942 20.0078 51.2573C23.6368 54.9388 27.8333 59.2 37.0031 59.2C46.8698 59.2 53.0364 54.2667 55.5031 44.4C51.8031 49.3333 47.4864 51.1833 42.5531 49.95C39.738 49.247 37.7277 47.2058 35.4984 44.9427C31.8724 41.2612 27.676 37 18.5031 37Z" fill="#595C5F" fill-opacity="0.3"/>
    </g>
    <defs>
        <clipPath id="clip0">
            <rect width="74" height="74" fill="white"/>
        </clipPath>
    </defs>
</svg>
