<svg width="74" height="74" viewBox="0 0 74 74" fill="none"
    xmlns="http://www.w3.org/2000/svg">
    <g clip-path="url(#clip0)">
        <path d="M43.3224 8.47992L58.534 17.272C59.2419 16.5281 60.1131 15.9591 61.0788 15.6099C62.0445 15.2607 63.0782 15.1409 64.0981 15.2601C65.1181 15.3792 66.0964 15.7339 66.9556 16.2962C67.8148 16.8585 68.5315 17.613 69.0489 18.5C69.5603 19.3903 69.8573 20.3875 69.9163 21.4125C69.9754 22.4375 69.7949 23.4622 69.3892 24.4053C68.9835 25.3485 68.3637 26.1842 67.5789 26.8462C66.7941 27.5082 65.866 27.9784 64.8679 28.2194V45.7921C65.8677 46.0281 66.7982 46.4951 67.5848 47.1557C68.3715 47.8164 68.9923 48.6522 69.3975 49.5961C69.8026 50.5401 69.9809 51.5658 69.918 52.5911C69.855 53.6164 69.5527 54.6127 69.0351 55.5C68.5117 56.4035 67.7818 57.1702 66.9051 57.7373C66.0284 58.3045 65.0298 58.6559 63.9912 58.7628C62.9525 58.8698 61.9033 58.7292 60.9295 58.3526C59.9556 57.9759 59.0848 57.374 58.3883 56.5961L43.2599 65.3281C43.5878 66.3196 43.6757 67.3747 43.5164 68.4068C43.3571 69.4389 42.9552 70.4184 42.3437 71.2649C41.7322 72.1114 40.9285 72.8007 39.9987 73.2762C39.069 73.7517 38.0397 73.9997 36.9954 74C35.969 74.0008 34.9565 73.7618 34.0388 73.3021C33.1211 72.8424 32.3234 72.1747 31.7093 71.3522C31.0953 70.5297 30.6818 69.5752 30.5019 68.5646C30.322 67.5541 30.3806 66.5155 30.673 65.5316L15.4498 56.7511C14.852 57.3794 14.1361 57.8836 13.343 58.2347C12.5499 58.5859 11.6954 58.777 10.8283 58.7972C9.96124 58.8174 9.09871 58.6662 8.29017 58.3524C7.48163 58.0386 6.74298 57.5683 6.11656 56.9684C5.26322 56.148 4.64581 55.1134 4.32883 53.9728C4.01185 52.8323 4.00692 51.6275 4.31456 50.4844C4.6222 49.3413 5.23112 48.3017 6.07772 47.4743C6.92433 46.6469 7.97757 46.0619 9.12744 45.7806V28.2079C8.20573 27.9885 7.34211 27.573 6.59537 26.9899C5.84863 26.4067 5.2363 25.6695 4.80007 24.8284C4.36385 23.9874 4.11395 23.0622 4.06741 22.1159C4.02087 21.1695 4.17877 20.2243 4.53036 19.3445C4.88195 18.4647 5.41898 17.6709 6.10489 17.0173C6.7908 16.3637 7.60948 15.8655 8.50522 15.5567C9.40095 15.2479 10.3527 15.1358 11.2957 15.2279C12.2387 15.3199 13.1507 15.6141 13.9698 16.0904C14.5109 16.4025 15.0174 16.7887 15.4521 17.2466L30.6753 8.46605C30.1788 6.79048 30.3681 4.98632 31.2016 3.4503C32.0351 1.91429 33.4445 0.772197 35.1199 0.275172C36.2591 -0.0654542 37.4693 -0.0915465 38.6221 0.19966C39.7749 0.490867 40.8275 1.08852 41.6683 1.9293C42.509 2.77007 43.1067 3.82264 43.3979 4.97546C43.6891 6.12828 43.663 7.33841 43.3224 8.47761V8.47992ZM41.7337 11.1902C41.6736 11.2503 41.625 11.3104 41.5533 11.3705L61.4755 45.8661C61.5588 45.843 61.6559 45.8176 61.7276 45.7944V28.1986C60.8885 27.9912 60.0986 27.6201 59.4033 27.1068C58.7079 26.5934 58.1207 25.9478 57.6753 25.2071C57.23 24.4663 56.9352 23.6449 56.808 22.79C56.6807 21.9351 56.7234 21.0635 56.9338 20.2251C56.9453 20.1534 56.9708 20.0679 56.9823 19.9962L41.7337 11.1902ZM32.4351 11.3705L32.2548 11.1902L17.0061 19.9823C17.489 21.6609 17.2858 23.4626 16.4412 24.9915C15.5965 26.5204 14.1795 27.6514 12.5014 28.1362L12.2609 28.1963V45.7921L12.5268 45.8638L32.449 11.3682L32.4351 11.3705ZM38.8431 12.9361C37.6415 13.2737 36.3701 13.2737 35.1685 12.9361L15.2463 47.4317C16.1505 48.2989 16.7888 49.4181 17.1009 50.6484H56.9083C57.2089 49.4204 57.8472 48.2989 58.7629 47.4201L38.8431 12.9361ZM41.8771 62.9671L57.0286 54.2119C56.98 54.0662 56.9453 53.9229 56.9083 53.7772H17.0894L17.0177 54.0292L32.2548 62.8214C32.8692 62.1834 33.6063 61.6762 34.4218 61.3305C35.2373 60.9847 36.1143 60.8075 37 60.8095C38.9402 60.8095 40.6746 61.6397 41.8771 62.9647V62.9671Z" fill="#595C5F" fill-opacity="0.3"/>
    </g>
    <defs>
        <clipPath id="clip0">
            <rect width="74" height="74" fill="white"/>
        </clipPath>
    </defs>
</svg>
