<svg width="24" height="24" viewBox="0 0 24 24" fill="none"
    xmlns="http://www.w3.org/2000/svg">
    <path d="M12.026 2C9.65707 1.9997 7.36536 2.84248 5.56107 4.3775C3.75677 5.91252 2.55767 8.03957 2.17839 10.3779C1.7991 12.7163 2.26441 15.1133 3.491 17.1399C4.7176 19.1666 6.62542 20.6905 8.87299 21.439C9.37299 21.529 9.55199 21.222 9.55199 20.958C9.55199 20.721 9.54399 20.093 9.54099 19.258C6.76599 19.858 6.17999 17.92 6.17999 17.92C5.9973 17.317 5.60456 16.7993 5.07299 16.461C4.17299 15.842 5.14199 15.856 5.14199 15.856C5.78199 15.944 6.34699 16.323 6.66899 16.884C6.80412 17.1297 6.98656 17.3462 7.20578 17.521C7.42501 17.6959 7.67669 17.8255 7.94629 17.9026C8.2159 17.9797 8.49809 18.0026 8.7766 17.9701C9.05511 17.9375 9.32442 17.8502 9.56899 17.713C9.61499 17.207 9.84099 16.734 10.204 16.379C7.98999 16.128 5.66199 15.272 5.66199 11.449C5.6497 10.4602 6.01689 9.5043 6.68799 8.778C6.38434 7.91731 6.4201 6.97325 6.78799 6.138C6.78799 6.138 7.62499 5.869 9.52999 7.159C11.1638 6.71101 12.8881 6.71101 14.522 7.159C16.428 5.868 17.264 6.138 17.264 6.138C17.634 6.973 17.669 7.918 17.364 8.778C18.0375 9.50423 18.4044 10.4626 18.388 11.453C18.388 15.286 16.058 16.128 13.836 16.375C14.316 16.865 14.561 17.537 14.511 18.221C14.511 19.555 14.499 20.631 14.499 20.958C14.499 21.225 14.677 21.535 15.186 21.437C17.4326 20.6872 19.3392 19.1625 20.5646 17.1357C21.7899 15.1088 22.2541 12.7121 21.874 10.3743C21.4939 8.03655 20.2944 5.91029 18.4901 4.37599C16.6858 2.84169 14.3944 1.99946 12.026 2Z" fill="white"/>
</svg>
