<svg xmlns="http://www.w3.org/2000/svg" xmlns:xlink="http://www.w3.org/1999/xlink" viewBox="0 0 100 100" version="1.1" x="0px" y="0px"><title>Scrum team</title><desc>Created with Sketch.</desc><g stroke="none" stroke-width="1" fill="none" fill-rule="evenodd"><g fill-rule="nonzero" fill="#48CAE4"><path d="M40,54.5 C30.8760959,54.5 23.5,46.8780342 23.5,37.5 C23.5,28.1219658 30.8760959,20.5 40,20.5 C49.1239041,20.5 56.5,28.1219658 56.5,37.5 C56.5,46.8780342 49.1239041,54.5 40,54.5 Z M40,51.5 C47.4446384,51.5 53.5,45.242793 53.5,37.5 C53.5,29.757207 47.4446384,23.5 40,23.5 C32.5553616,23.5 26.5,29.757207 26.5,37.5 C26.5,45.242793 32.5553616,51.5 40,51.5 Z"></path><path d="M49,55.421588 L48.3160803,55 C45.7920664,56.2607001 42.9734563,56.9653157 40,56.9653157 C37.0265437,56.9653157 34.2079336,56.2607001 31.6839197,55 L16.8020627,64.1736093 C14.4390215,65.6302566 13,68.2077695 13,70.9836991 L13,72.7586556 C13,76.205655 15.794345,79 19.2413444,79 L49,79 L49,76 L19.2413444,76 C17.4511993,76 16,74.5488007 16,72.7586556 L16,70.9836991 C16,69.2487431 16.8993884,67.6377975 18.3762892,66.727393 L31.9039775,58.3885326 C34.4617357,59.424692 37.1961485,59.9653157 40,59.9653157 C42.8038521,59.9653157 45.5382649,59.4246918 48.0960225,58.3885326 L49,58.9457706 L49,55.421588 Z"></path><path d="M62.0462643,60.0748633 C62.6398949,59.4970274 62.6526991,58.5473663 62.0748633,57.9537357 C61.4970274,57.3601051 60.5473663,57.3473009 59.9537357,57.9251367 L50.9537357,66.6856731 C50.3084507,67.313789 50.3581572,68.3649158 51.0598358,68.9293354 L60.0598358,76.168799 C60.7053457,76.6880374 61.6495607,76.5856741 62.168799,75.9401642 C62.6880374,75.2946543 62.5856741,74.3504393 61.9401642,73.831201 L54.2603176,67.6536487 L62.0462643,60.0748633 Z"></path><path d="M88.0462643,60.0748633 C88.6398949,59.4970274 88.6526991,58.5473663 88.0748633,57.9537357 C87.4970274,57.3601051 86.5473663,57.3473009 85.9537357,57.9251367 L76.9537357,66.6856731 C76.3084507,67.313789 76.3581572,68.3649158 77.0598358,68.9293354 L86.0598358,76.168799 C86.7053457,76.6880374 87.6495607,76.5856741 88.168799,75.9401642 C88.6880374,75.2946543 88.5856741,74.3504393 87.9401642,73.831201 L80.2603176,67.6536487 L88.0462643,60.0748633 Z" transform="translate(82.500019, 67.000026) scale(-1, 1) translate(-82.500019, -67.000026) "></path><path d="M70.6395804,58.0540222 L65.5629631,75.0873441 C65.3293182,75.8712811 65.7661436,76.6989993 66.5386399,76.9361045 C67.3111361,77.1732096 68.1267747,76.7299148 68.3604196,75.9459778 L73.4370369,58.9126559 C73.6706818,58.1287189 73.2338564,57.3010007 72.4613601,57.0638955 C71.6888639,56.8267904 70.8732253,57.2700852 70.6395804,58.0540222 Z"></path></g></g></svg>