<?xml version="1.0" encoding="utf-8"?>
<!-- Generator: Adobe Illustrator 17.0.0, SVG Export Plug-In . SVG Version: 6.00 Build 0)  -->
<!DOCTYPE svg PUBLIC "-//W3C//DTD SVG 1.1//EN" "http://www.w3.org/Graphics/SVG/1.1/DTD/svg11.dtd">
<svg version="1.1" id="Layer_1" xmlns="http://www.w3.org/2000/svg" xmlns:xlink="http://www.w3.org/1999/xlink" x="0px" y="0px"
	 width="225px" height="173px" viewBox="0 0 225 173" enable-background="new 0 0 225 173" xml:space="preserve">
<path fill="#48CAE4" d="M121.46,31.205h-1.45c-10.168,0-27.051,2.525-50.648,7.575c-17.427,3.709-28.925,5.563-34.492,5.563
	c-3.872,0-7.201-0.789-9.984-2.367c-2.784-1.657-4.175-3.63-4.175-5.918c0-3.788,3.268-8.443,9.803-13.967
	c6.656-5.602,13.312-9.272,19.969-11.008c9.803-2.604,30.376-3.906,61.72-3.906c12.466,0,24.991,0.395,37.58,1.184
	c12.585,0.789,23.173,1.894,31.769,3.314c8.711,1.341,14.217,2.762,16.518,4.261c1.208,0.789,1.814,2.486,1.814,5.09
	c0,2.446-1.026,6.786-3.086,13.02c-1.937,6.155-4.235,12.073-6.897,17.754c-17.065,34.799-37.275,66.086-60.634,93.862
	c-5.807,6.942-11.436,12.309-16.883,16.096c-5.324,3.789-11.254,6.511-17.79,8.167c-6.413,1.578-14.098,2.368-23.055,2.368
	c-12.828,0-24.749-1.578-35.762-4.734c-11.013-3.236-19.727-7.575-26.141-13.02c-6.293-5.524-9.439-11.56-9.439-18.11
	c0-4.577,1.452-9.469,4.357-14.677c3.026-5.287,6.414-9.351,10.166-12.191c1.815-1.499,3.933-2.249,6.354-2.249
	c3.994,0,7.745,1.223,11.255,3.669c3.51,2.446,7.322,6.628,11.437,12.546c5.93,8.916,12.707,16.373,20.332,22.37
	c0.847,0.71,2.723,2.092,5.627,4.143c5.687-8.285,10.044-15.07,13.07-20.358c3.145-5.366,6.718-12.507,10.711-21.423
	c2.785-5.681,7.503-16.65,14.161-32.905C112.868,61.703,117.467,46.987,121.46,31.205z"/>
<path fill="#FFFFFF" d="M147.485,31.205h-1.45c-10.168,0-27.051,2.525-50.648,7.575c-17.429,3.709-28.925,5.563-34.492,5.563
	c-3.872,0-7.201-0.789-9.984-2.367c-2.784-1.657-4.175-3.63-4.175-5.918c0-3.788,3.268-8.443,9.803-13.967
	c6.656-5.602,13.312-9.272,19.97-11.008c9.8-2.604,30.374-3.906,61.719-3.906c12.466,0,24.991,0.395,37.58,1.184
	c12.585,0.789,23.173,1.894,31.769,3.314c8.711,1.341,14.217,2.762,16.518,4.261c1.208,0.789,1.814,2.486,1.814,5.09
	c0,2.446-1.026,6.786-3.086,13.02c-1.937,6.155-4.235,12.073-6.897,17.754c-17.065,34.799-37.275,66.086-60.634,93.862
	c-5.807,6.942-11.436,12.309-16.883,16.096c-5.324,3.789-11.254,6.511-17.79,8.167c-6.413,1.578-14.098,2.368-23.054,2.368
	c-12.83,0-24.75-1.578-35.763-4.734c-11.013-3.236-19.727-7.575-26.141-13.02c-6.293-5.524-9.439-11.56-9.439-18.11
	c0-4.577,1.452-9.469,4.357-14.677c3.026-5.287,6.414-9.351,10.166-12.191c1.815-1.499,3.933-2.249,6.354-2.249
	c3.994,0,7.745,1.223,11.255,3.669c3.51,2.446,7.322,6.628,11.437,12.546c5.93,8.916,12.707,16.373,20.333,22.37
	c0.848,0.71,2.721,2.092,5.625,4.143c5.688-8.285,10.045-15.07,13.072-20.358c3.145-5.366,6.718-12.507,10.711-21.423
	c2.785-5.681,7.503-16.65,14.161-32.905C138.893,61.703,143.492,46.987,147.485,31.205z"/>
</svg>
