<svg width="76" height="74" viewBox="0 0 76 74" fill="none"
    xmlns="http://www.w3.org/2000/svg">
    <path d="M37.5069 31.1725C40.7262 31.1725 43.3517 33.7625 43.3517 37C43.3517 40.0833 40.7262 42.7042 37.5069 42.7042C34.2875 42.7042 31.662 40.0833 31.662 37C31.662 33.7625 34.2875 31.1725 37.5069 31.1725ZM23.0355 61.6667C25.0046 62.8383 29.3179 61.05 34.2875 56.425C32.6622 54.6058 31.0682 52.6325 29.5679 50.5667C27.0492 50.3289 24.5451 49.9583 22.0665 49.4567C20.4725 56.055 21.0664 60.5875 23.0355 61.6667ZM25.2546 43.9683L24.3482 42.3958C24.0044 43.29 23.6606 44.1842 23.4418 45.0475C24.2857 45.2325 25.2234 45.3867 26.1923 45.5408L25.2546 43.9683ZM45.6959 41.625L48.2276 37L45.6959 32.375C44.7582 30.7408 43.758 29.2917 42.8516 27.8425C41.1638 27.75 39.3822 27.75 37.5069 27.75C35.6315 27.75 33.8499 27.75 32.1621 27.8425C31.2557 29.2917 30.2555 30.7408 29.3179 32.375L26.7861 37L29.3179 41.625C30.2555 43.2592 31.2557 44.7083 32.1621 46.1575C33.8499 46.25 35.6315 46.25 37.5069 46.25C39.3822 46.25 41.1638 46.25 42.8516 46.1575C43.758 44.7083 44.7582 43.2592 45.6959 41.625ZM37.5069 20.905C36.913 21.5833 36.2879 22.2925 35.6628 23.125H39.3509C38.7258 22.2925 38.1007 21.5833 37.5069 20.905ZM37.5069 53.095C38.1007 52.4167 38.7258 51.7075 39.3509 50.875H35.6628C36.2879 51.7075 36.913 52.4167 37.5069 53.095ZM51.947 12.3333C50.0091 11.1617 45.6959 12.95 40.7262 17.575C42.3515 19.3942 43.9455 21.3675 45.4458 23.4333C48.0088 23.68 50.5405 24.05 52.9472 24.5433C54.5412 17.945 53.9474 13.4125 51.947 12.3333ZM49.7591 30.0317L50.6655 31.6042C51.0093 30.71 51.3531 29.8158 51.5719 28.9525C50.728 28.7675 49.7904 28.6133 48.8214 28.4592L49.7591 30.0317ZM54.2912 8.29416C58.8858 10.8842 59.3859 17.6983 57.448 25.6533C65.387 27.9658 71.1068 31.7892 71.1068 37C71.1068 42.2108 65.387 46.0342 57.448 48.3467C59.3859 56.3017 58.8858 63.1158 54.2912 65.7058C49.7278 68.2958 43.508 65.3358 37.5069 59.6933C31.5058 65.3358 25.2859 68.2958 20.6913 65.7058C16.128 63.1158 15.6279 56.3017 17.5657 48.3467C9.62676 46.0342 3.90697 42.2108 3.90697 37C3.90697 31.7892 9.62676 27.9658 17.5657 25.6533C15.6279 17.6983 16.128 10.8842 20.6913 8.29416C25.2859 5.70416 31.5058 8.66416 37.5069 14.3067C43.508 8.66416 49.7278 5.70416 54.2912 8.29416ZM53.3848 37C54.4475 39.3125 55.3851 41.625 56.1665 43.9683C62.7302 42.0258 66.4184 39.2508 66.4184 37C66.4184 34.7492 62.7302 31.9742 56.1665 30.0317C55.3851 32.375 54.4475 34.6875 53.3848 37ZM21.629 37C20.5663 34.6875 19.6286 32.375 18.8472 30.0317C12.2835 31.9742 8.59532 34.7492 8.59532 37C8.59532 39.2508 12.2835 42.0258 18.8472 43.9683C19.6286 41.625 20.5663 39.3125 21.629 37ZM49.7591 43.9683L48.8214 45.5408C49.7904 45.3867 50.728 45.2325 51.5719 45.0475C51.3531 44.1842 51.0093 43.29 50.6655 42.3958L49.7591 43.9683ZM40.7262 56.425C45.6959 61.05 50.0091 62.8383 51.947 61.6667C53.9474 60.5875 54.5412 56.055 52.9472 49.4567C50.5405 49.95 48.0088 50.32 45.4458 50.5667C43.9455 52.6325 42.3515 54.6058 40.7262 56.425ZM25.2546 30.0317L26.1923 28.4592C25.2234 28.6133 24.2857 28.7675 23.4418 28.9525C23.6606 29.8158 24.0044 30.71 24.3482 31.6042L25.2546 30.0317ZM34.2875 17.575C29.3179 12.95 25.0046 11.1617 23.0355 12.3333C21.0664 13.4125 20.4725 17.945 22.0665 24.5433C24.5451 24.0416 27.0492 23.6711 29.5679 23.4333C31.0682 21.3675 32.6622 19.3942 34.2875 17.575Z" fill="#595C5F" fill-opacity="0.3"/>
</svg>
