<svg width="24" height="24" viewBox="0 0 24 24" fill="none"
    xmlns="http://www.w3.org/2000/svg">
    <path d="M12.002 21.041C9.54201 21.041 9.25201 21.028 8.29201 20.986C7.54338 20.9614 6.80444 20.8092 6.10701 20.536C5.51019 20.3037 4.96819 19.9499 4.51543 19.497C4.06267 19.044 3.70905 18.5019 3.47701 17.905C3.21432 17.205 3.07263 16.4655 3.05801 15.718C3.00201 14.76 3.00201 14.446 3.00201 12.005C3.00201 9.538 3.01501 9.25 3.05801 8.295C3.07295 7.54853 3.21464 6.81001 3.47701 6.111C3.70878 5.51334 4.06265 4.97058 4.51601 4.51739C4.96937 4.0642 5.51226 3.71055 6.11001 3.479C6.80866 3.21521 7.54736 3.07315 8.29401 3.059C9.24901 3.005 9.56301 3.005 12.002 3.005C14.482 3.005 14.767 3.018 15.712 3.059C16.46 3.073 17.202 3.215 17.902 3.479C18.4996 3.71081 19.0424 4.06457 19.4957 4.51772C19.949 4.97088 20.303 5.5135 20.535 6.111C20.802 6.821 20.945 7.571 20.956 8.328C21.012 9.28601 21.012 9.599 21.012 12.039C21.012 14.479 20.998 14.799 20.956 15.746C20.9411 16.4942 20.799 17.2344 20.536 17.935C20.3034 18.5323 19.9491 19.0748 19.4957 19.5279C19.0422 19.981 18.4995 20.3348 17.902 20.567C17.202 20.829 16.463 20.971 15.716 20.986C14.761 21.041 14.448 21.041 12.002 21.041ZM11.968 4.588C9.52201 4.588 9.26801 4.6 8.31301 4.643C7.74266 4.65046 7.17781 4.75565 6.64301 4.954C6.25295 5.10352 5.89854 5.33311 5.60263 5.62799C5.30673 5.92286 5.07589 6.27646 4.92501 6.666C4.72501 7.206 4.62001 7.777 4.61401 8.353C4.56101 9.322 4.56101 9.576 4.56101 12.005C4.56101 14.405 4.57001 14.696 4.61401 15.659C4.62301 16.229 4.72801 16.794 4.92501 17.329C5.23101 18.116 5.85501 18.738 6.64401 19.04C7.17812 19.2396 7.74286 19.3448 8.31301 19.351C9.28101 19.407 9.53601 19.407 11.968 19.407C14.421 19.407 14.675 19.395 15.622 19.351C16.1924 19.3441 16.7574 19.2389 17.292 19.04C17.68 18.8893 18.0324 18.6596 18.3268 18.3654C18.6212 18.0712 18.8511 17.7189 19.002 17.331C19.202 16.791 19.307 16.219 19.313 15.643H19.324C19.367 14.687 19.367 14.432 19.367 11.989C19.367 9.54601 19.356 9.289 19.313 8.334C19.304 7.76446 19.1988 7.20054 19.002 6.666C18.8515 6.27755 18.6217 5.92471 18.3273 5.62995C18.0329 5.3352 17.6803 5.105 17.292 4.954C16.757 4.754 16.192 4.65 15.622 4.643C14.655 4.588 14.402 4.588 11.968 4.588ZM12.002 16.624C11.0876 16.6246 10.1935 16.354 9.4329 15.8464C8.67228 15.3388 8.07927 14.6171 7.72888 13.7725C7.37848 12.9278 7.28645 11.9983 7.46441 11.1013C7.64236 10.2044 8.08233 9.38034 8.72865 8.73347C9.37496 8.08659 10.1986 7.64591 11.0954 7.46718C11.9922 7.28844 12.9218 7.37967 13.7668 7.72934C14.6117 8.079 15.334 8.67138 15.8422 9.43156C16.3504 10.1917 16.6218 11.0856 16.622 12C16.6204 13.2252 16.1333 14.3998 15.2673 15.2665C14.4014 16.1332 13.2272 16.6214 12.002 16.624ZM12.002 8.998C11.4087 8.998 10.8287 9.17395 10.3353 9.5036C9.84196 9.83324 9.45744 10.3018 9.23038 10.85C9.00331 11.3981 8.9439 12.0013 9.05966 12.5833C9.17541 13.1652 9.46114 13.6998 9.88069 14.1193C10.3003 14.5389 10.8348 14.8246 11.4167 14.9404C11.9987 15.0561 12.6019 14.9967 13.1501 14.7696C13.6982 14.5426 14.1668 14.1581 14.4964 13.6647C14.8261 13.1714 15.002 12.5913 15.002 11.998C15.0002 11.2029 14.6835 10.4409 14.1213 9.87873C13.5591 9.31652 12.7971 8.99985 12.002 8.998ZM16.802 8.285C16.6604 8.28448 16.5204 8.25608 16.3898 8.20142C16.2592 8.14676 16.1407 8.06691 16.0409 7.96644C15.8395 7.76352 15.727 7.48891 15.728 7.203C15.7291 6.9171 15.8437 6.64333 16.0466 6.44192C16.2495 6.2405 16.5241 6.12794 16.81 6.129C17.0959 6.13007 17.3697 6.24466 17.5711 6.44757C17.7725 6.65049 17.8851 6.9251 17.884 7.211C17.883 7.49691 17.7684 7.77068 17.5654 7.97209C17.3625 8.17351 17.0879 8.28607 16.802 8.285Z" fill="white"/>
</svg>
