<svg width="225" height="173" viewBox="0 0 225 173" fill="none"
    xmlns="http://www.w3.org/2000/svg">
    <path d="M112.814 59.0898H112.424C109.689 59.0898 105.148 60.1315 98.8008 62.2148C94.1133 63.7448 91.0208 64.5098 89.5234 64.5098C88.4818 64.5098 87.5866 64.1842 86.8379 63.5332C86.0892 62.8496 85.7148 62.0358 85.7148 61.0918C85.7148 59.5293 86.5938 57.6087 88.3516 55.3301C90.1419 53.0189 91.9323 51.5052 93.7227 50.7891C96.3594 49.7148 101.893 49.1777 110.324 49.1777C113.677 49.1777 117.046 49.3405 120.432 49.666C123.817 49.9915 126.665 50.4473 128.977 51.0332C131.32 51.5866 132.801 52.1725 133.42 52.791C133.745 53.1165 133.908 53.8164 133.908 54.8906C133.908 55.8997 133.632 57.6901 133.078 60.2617C132.557 62.8008 131.939 65.2422 131.223 67.5859C126.633 81.9414 121.197 94.8483 114.914 106.307C113.352 109.171 111.838 111.385 110.373 112.947C108.941 114.51 107.346 115.633 105.588 116.316C103.863 116.967 101.796 117.293 99.3867 117.293C95.9362 117.293 92.7298 116.642 89.7676 115.34C86.8053 114.005 84.4616 112.215 82.7363 109.969C81.0436 107.69 80.1973 105.2 80.1973 102.498C80.1973 100.61 80.5879 98.5918 81.3691 96.4434C82.1829 94.2624 83.0944 92.5859 84.1035 91.4141C84.5918 90.7956 85.1615 90.4863 85.8125 90.4863C86.8867 90.4863 87.8958 90.9909 88.8398 92C89.7839 93.0091 90.8092 94.7344 91.916 97.1758C93.5111 100.854 95.334 103.93 97.3848 106.404C97.6126 106.697 98.1172 107.267 98.8984 108.113C100.428 104.695 101.6 101.896 102.414 99.7148C103.26 97.5013 104.221 94.5553 105.295 90.877C106.044 88.5332 107.313 84.0085 109.104 77.3027C110.503 71.6712 111.74 65.6003 112.814 59.0898Z" fill="#48CAE4"/>
    <path d="M119.814 59.0898H119.424C116.689 59.0898 112.148 60.1315 105.801 62.2148C101.113 63.7448 98.0208 64.5098 96.5234 64.5098C95.4818 64.5098 94.5866 64.1842 93.8379 63.5332C93.0892 62.8496 92.7148 62.0358 92.7148 61.0918C92.7148 59.5293 93.5938 57.6087 95.3516 55.3301C97.1419 53.0189 98.9323 51.5052 100.723 50.7891C103.359 49.7148 108.893 49.1777 117.324 49.1777C120.677 49.1777 124.046 49.3405 127.432 49.666C130.817 49.9915 133.665 50.4473 135.977 51.0332C138.32 51.5866 139.801 52.1725 140.42 52.791C140.745 53.1165 140.908 53.8164 140.908 54.8906C140.908 55.8997 140.632 57.6901 140.078 60.2617C139.557 62.8008 138.939 65.2422 138.223 67.5859C133.633 81.9414 128.197 94.8483 121.914 106.307C120.352 109.171 118.838 111.385 117.373 112.947C115.941 114.51 114.346 115.633 112.588 116.316C110.863 116.967 108.796 117.293 106.387 117.293C102.936 117.293 99.7298 116.642 96.7676 115.34C93.8053 114.005 91.4616 112.215 89.7363 109.969C88.0436 107.69 87.1973 105.2 87.1973 102.498C87.1973 100.61 87.5879 98.5918 88.3691 96.4434C89.1829 94.2624 90.0944 92.5859 91.1035 91.4141C91.5918 90.7956 92.1615 90.4863 92.8125 90.4863C93.8867 90.4863 94.8958 90.9909 95.8398 92C96.7839 93.0091 97.8092 94.7344 98.916 97.1758C100.511 100.854 102.334 103.93 104.385 106.404C104.613 106.697 105.117 107.267 105.898 108.113C107.428 104.695 108.6 101.896 109.414 99.7148C110.26 97.5013 111.221 94.5553 112.295 90.877C113.044 88.5332 114.313 84.0085 116.104 77.3027C117.503 71.6712 118.74 65.6003 119.814 59.0898Z" fill="white"/>
</svg>
