<svg width="24" height="24" viewBox="0 0 24 24" fill="none"
    xmlns="http://www.w3.org/2000/svg">
    <path d="M19.995 6.68797C20.8914 6.15206 21.5622 5.30821 21.882 4.31397C21.0397 4.81379 20.1181 5.16587 19.157 5.35497C18.5088 4.66932 17.6532 4.21589 16.7219 4.06458C15.7905 3.91326 14.8353 4.07246 14.0034 4.51763C13.1715 4.9628 12.5091 5.66923 12.1184 6.52803C11.7276 7.38683 11.6301 8.35032 11.841 9.26997C10.1349 9.18432 8.46586 8.74085 6.94223 7.96836C5.41861 7.19586 4.07445 6.11161 2.99702 4.78597C2.44908 5.73108 2.28141 6.8493 2.52806 7.91355C2.77472 8.97779 3.41719 9.90826 4.32502 10.516C3.64373 10.4941 2.97754 10.3096 2.38202 9.97797V10.032C2.38221 11.0229 2.72515 11.9833 3.35268 12.7503C3.98021 13.5173 4.8537 14.0436 5.82502 14.24C5.19308 14.4119 4.53022 14.4372 3.88702 14.314C4.16175 15.1663 4.69572 15.9116 5.41442 16.4458C6.13312 16.98 7.00068 17.2766 7.89602 17.294C6.37585 18.4871 4.49849 19.1341 2.56602 19.131C2.22302 19.131 1.88102 19.111 1.54102 19.072C3.50343 20.333 5.78739 21.0023 8.12002 21C9.72662 21.011 11.3194 20.7027 12.8058 20.0929C14.2923 19.4832 15.6427 18.5841 16.7787 17.448C17.9148 16.3119 18.8137 14.9614 19.4233 13.4749C20.033 11.9884 20.3412 10.3956 20.33 8.78897C20.33 8.60297 20.326 8.41797 20.317 8.23397C21.1575 7.62659 21.8828 6.87414 22.459 6.01197C21.676 6.35902 20.8455 6.58688 19.995 6.68797Z" fill="white"/>
</svg>
