<svg width="32" height="32" viewBox="0 0 32 32" fill="none"
    xmlns="http://www.w3.org/2000/svg">
    <path d="M24 14V25.5C24 25.8283 23.9353 26.1534 23.8097 26.4567C23.6841 26.76 23.4999 27.0356 23.2678 27.2678C23.0356 27.4999 22.76 27.6841 22.4567 27.8097C22.1534 27.9353 21.8283 28 21.5 28H6.5C5.83696 28 5.20107 27.7366 4.73223 27.2678C4.26339 26.7989 4 26.163 4 25.5V10.5C4 9.83696 4.26339 9.20107 4.73223 8.73223C5.20107 8.26339 5.83696 8 6.5 8H16.9675" stroke="white" stroke-width="2" stroke-linecap="round" stroke-linejoin="round"/>
    <path d="M21 4H28V11" stroke="white" stroke-width="2" stroke-linecap="round" stroke-linejoin="round"/>
    <path d="M14 18L27.5 4.5" stroke="white" stroke-width="2" stroke-linecap="round" stroke-linejoin="round"/>
</svg>
