<svg width="74" height="74" viewBox="0 0 74 74" fill="none"
    xmlns="http://www.w3.org/2000/svg">
    <path d="M39.3125 34.6875C39.3125 32.8476 40.0434 31.083 41.3444 29.7819C42.6455 28.4809 44.4101 27.75 46.25 27.75H53.1875C53.8008 27.75 54.389 27.9936 54.8227 28.4273C55.2564 28.861 55.5 29.4492 55.5 30.0625C55.5 30.6758 55.2564 31.264 54.8227 31.6977C54.389 32.1314 53.8008 32.375 53.1875 32.375H46.25C45.6367 32.375 45.0485 32.6186 44.6148 33.0523C44.1811 33.486 43.9375 34.0742 43.9375 34.6875V37C43.9375 37.6133 44.1811 38.2015 44.6148 38.6352C45.0485 39.0689 45.6367 39.3125 46.25 39.3125H48.5625C50.4024 39.3125 52.167 40.0434 53.4681 41.3444C54.7691 42.6455 55.5 44.4101 55.5 46.25V48.5625C55.5 50.4024 54.7691 52.167 53.4681 53.4681C52.167 54.7691 50.4024 55.5 48.5625 55.5H41.625C41.0117 55.5 40.4235 55.2564 39.9898 54.8227C39.5561 54.389 39.3125 53.8008 39.3125 53.1875C39.3125 52.5742 39.5561 51.986 39.9898 51.5523C40.4235 51.1186 41.0117 50.875 41.625 50.875H48.5625C49.1758 50.875 49.764 50.6314 50.1977 50.1977C50.6314 49.764 50.875 49.1758 50.875 48.5625V46.25C50.875 45.6367 50.6314 45.0485 50.1977 44.6148C49.764 44.1811 49.1758 43.9375 48.5625 43.9375H46.25C44.4101 43.9375 42.6455 43.2066 41.3444 41.9056C40.0434 40.6045 39.3125 38.8399 39.3125 37V34.6875Z" fill="#595C5F" fill-opacity="0.3"/>
    <path d="M37 30.0625C37 29.4492 36.7564 28.861 36.3227 28.4273C35.889 27.9936 35.3008 27.75 34.6875 27.75C34.0742 27.75 33.486 27.9936 33.0523 28.4273C32.6186 28.861 32.375 29.4492 32.375 30.0625V48.5625C32.375 49.1758 32.1314 49.764 31.6977 50.1977C31.264 50.6314 30.6758 50.875 30.0625 50.875H25.4375C24.8242 50.875 24.236 51.1186 23.8023 51.5523C23.3686 51.986 23.125 52.5742 23.125 53.1875C23.125 53.8008 23.3686 54.389 23.8023 54.8227C24.236 55.2564 24.8242 55.5 25.4375 55.5H30.0625C31.9024 55.5 33.667 54.7691 34.9681 53.4681C36.2691 52.167 37 50.4024 37 48.5625V30.0625Z" fill="#595C5F" fill-opacity="0.3"/>
    <path d="M9.25 20.8125C9.25 17.7459 10.4682 14.805 12.6366 12.6366C14.805 10.4682 17.7459 9.25 20.8125 9.25H53.1875C56.2541 9.25 59.195 10.4682 61.3634 12.6366C63.5318 14.805 64.75 17.7459 64.75 20.8125V53.1875C64.75 56.2541 63.5318 59.195 61.3634 61.3634C59.195 63.5318 56.2541 64.75 53.1875 64.75H20.8125C17.7459 64.75 14.805 63.5318 12.6366 61.3634C10.4682 59.195 9.25 56.2541 9.25 53.1875V20.8125ZM20.8125 13.875C18.9726 13.875 17.208 14.6059 15.9069 15.9069C14.6059 17.208 13.875 18.9726 13.875 20.8125V53.1875C13.875 55.0274 14.6059 56.792 15.9069 58.0931C17.208 59.3941 18.9726 60.125 20.8125 60.125H53.1875C55.0274 60.125 56.792 59.3941 58.0931 58.0931C59.3941 56.792 60.125 55.0274 60.125 53.1875V20.8125C60.125 18.9726 59.3941 17.208 58.0931 15.9069C56.792 14.6059 55.0274 13.875 53.1875 13.875H20.8125Z" fill="#595C5F" fill-opacity="0.3"/>
</svg>
