<svg width="250" height="250" viewBox="0 0 250 250" fill="none"
    xmlns="http://www.w3.org/2000/svg">
    <g opacity="0.3">
        <path d="M158.8 140.3H162.4C165 140.3 167.1 138 166.8 135.4C166.5 133.2 164.6 131.6 162.3 131.6H158.8C158 131.6 157.4 132.2 157.4 133V133.8H150.3L136.7 99.8C138.2 97.6 139 95 139 92.2C139 86.4 135.3 81.3 130.2 79.3V67.6C130.2 64.8 127.9 62.5 125.1 62.5C122.3 62.5 120 64.8 120 67.6V79.3C114.8 81.3 111.2 86.3 111.2 92.2C111.2 95 112 97.6 113.5 99.8L99.9 133.8H92.8V133C92.8 132.2 92.2 131.6 91.4 131.6H87.9C85.7 131.6 83.7 133.2 83.4 135.4C83.1 138 85.2 140.3 87.8 140.3H91.4C92.2 140.3 92.8 139.7 92.8 138.9V138H98.2L86.7 166.6C85.8 169 86.9 171.7 89.3 172.6L87.4 186.8C87.3 187.5 88.3 187.7 88.5 187.1L95.3 170L108.1 138H122.1V144.3C122.1 145.1 122.8 145.8 123.6 145.8H126.3C127.1 145.8 127.8 145.1 127.8 144.3V138H141.8L154.6 170L161.4 187.1C161.7 187.7 162.6 187.5 162.5 186.8L160.6 172.6C163 171.7 164.2 168.9 163.2 166.6L151.9 138H157.3V138.8C157.4 139.6 158 140.3 158.8 140.3ZM120.1 92.2C120.1 89.5 122.3 87.3 125 87.3C127.7 87.3 129.9 89.5 129.9 92.2C129.9 94.9 127.7 97.1 125 97.1C122.3 97.1 120.1 94.8 120.1 92.2ZM127.9 133.8V127.8C127.9 127 127.2 126.3 126.4 126.3H123.7C122.9 126.3 122.2 127 122.2 127.8V133.8H109.8L121.1 105.5C122.3 105.9 123.6 106 125 106C126.4 106 127.6 105.8 128.9 105.5L140.2 133.8H127.9Z" fill="#595C5F"/>
    </g>
</svg>
