<svg width="123" height="118" viewBox="0 0 123 118" fill="none"
    xmlns="http://www.w3.org/2000/svg">
    <g clip-path="url(#clip0)">
        <path fill-rule="evenodd" clip-rule="evenodd" d="M45.66 5.20998C56.01 0.779985 66.37 -0.710015 76 0.309985C104.85 3.35998 127.04 28.96 122.22 65.47C119.55 85.69 113.03 103.72 93.84 112.63C83.87 117.26 73.12 118.87 64.45 117.34C44.2 113.77 50.01 100.11 44.58 85.95C38.18 69.25 24.94 64.93 19.47 86.37C18.09 91.79 13.18 93.45 10.21 93.78C4.07997 94.46 -0.840027 86.53 0.109973 72.54C2.07997 43.77 18.82 16.7 45.66 5.20998ZM29.53 37.96C34.99 37.96 39.41 42.38 39.41 47.84C39.41 53.3 34.99 57.72 29.53 57.72C24.07 57.72 19.65 53.3 19.65 47.84C19.65 42.39 24.07 37.96 29.53 37.96ZM94.87 61.54C98.12 61.54 100.76 64.18 100.76 67.43C100.76 70.69 98.12 73.33 94.87 73.33C91.62 73.33 88.98 70.69 88.98 67.43C88.98 64.17 91.62 61.54 94.87 61.54ZM71.64 69.86C79.11 69.86 85.16 75.91 85.16 83.38C85.16 90.85 79.11 96.9 71.64 96.9C64.17 96.9 58.12 90.84 58.12 83.38C58.13 75.91 64.18 69.86 71.64 69.86ZM57.43 50.96C60.68 50.96 63.32 53.6 63.32 56.85C63.32 60.1 60.68 62.74 57.43 62.74C54.17 62.74 51.53 60.1 51.53 56.85C51.54 53.6 54.18 50.96 57.43 50.96ZM86.9 22.54C94.37 22.54 100.42 28.59 100.42 36.06C100.42 43.53 94.36 49.58 86.9 49.58C79.43 49.58 73.38 43.53 73.38 36.06C73.38 28.59 79.43 22.54 86.9 22.54ZM56.22 20.63C60.81 20.63 64.54 24.36 64.54 28.95C64.54 33.54 60.82 37.27 56.22 37.27C51.63 37.27 47.9 33.54 47.9 28.95C47.9 24.35 51.63 20.63 56.22 20.63Z" fill="#595C5F" fill-opacity="0.3"/>
    </g>
    <defs>
        <clipPath id="clip0">
            <rect width="122.88" height="117.9" fill="white"/>
        </clipPath>
    </defs>
</svg>
